HIERARCHY
ROOT Hips
{
 OFFSET 0.000000 0.000000 0.000000
 CHANNELS 6 Xposition Yposition Zposition Yrotation Xrotation Zrotation
 JOINT Chest
 {
  OFFSET 0.000000 9.585900 0.002600
  CHANNELS 3 Yrotation Xrotation Zrotation
  JOINT Chest2
  {
   OFFSET 0.000000 9.601200 -0.005300
   CHANNELS 3 Yrotation Xrotation Zrotation
   JOINT Chest3
   {
    OFFSET 0.000000 9.561800 0.000000
    CHANNELS 3 Yrotation Xrotation Zrotation
    JOINT Chest4
    {
     OFFSET 0.000000 9.552100 0.000000
     CHANNELS 3 Yrotation Xrotation Zrotation
     JOINT Neck
     {
      OFFSET 0.000000 14.453000 0.000000
      CHANNELS 3 Yrotation Xrotation Zrotation
      JOINT Head
      {
       OFFSET 0.000000 8.936500 -0.011300
       CHANNELS 3 Yrotation Xrotation Zrotation
       End Site
       {
        OFFSET 0.000000 17.073600 -0.006000
       }
      }
     }
     JOINT RightCollar
     {
      OFFSET -2.921100 9.558500 0.000000
      CHANNELS 3 Yrotation Xrotation Zrotation
      JOINT RightShoulder
      {
       OFFSET -13.519700 0.000000 0.000000
       CHANNELS 3 Yrotation Xrotation Zrotation
       JOINT RightElbow
       {
        OFFSET 0.000000 -29.696600 0.000000
        CHANNELS 3 Yrotation Xrotation Zrotation
        JOINT RightWrist
        {
         OFFSET 0.000000 -24.004700 0.000000
         CHANNELS 3 Yrotation Xrotation Zrotation
         End Site
         {
          OFFSET 0.000000 -17.728500 0.000000
         }
        }
       }
      }
     }
     JOINT LeftCollar
     {
      OFFSET 2.921100 9.558500 0.000000
      CHANNELS 3 Yrotation Xrotation Zrotation
      JOINT LeftShoulder
      {
       OFFSET 13.519700 0.000000 0.000000
       CHANNELS 3 Yrotation Xrotation Zrotation
       JOINT LeftElbow
       {
        OFFSET 0.000000 -29.696600 0.000000
        CHANNELS 3 Yrotation Xrotation Zrotation
        JOINT LeftWrist
        {
         OFFSET 0.000000 -24.004700 0.000000
         CHANNELS 3 Yrotation Xrotation Zrotation
         End Site
         {
          OFFSET 0.000000 -17.728500 0.000000
         }
        }
       }
      }
     }
    }
   }
  }
 }
 JOINT RightHip
 {
  OFFSET -7.771700 -0.012900 -0.001300
  CHANNELS 3 Yrotation Xrotation Zrotation
  JOINT RightKnee
  {
   OFFSET 0.000000 -40.869800 0.001200
   CHANNELS 3 Yrotation Xrotation Zrotation
   JOINT RightAnkle
   {
    OFFSET 0.000000 -39.717900 0.002100
    CHANNELS 3 Yrotation Xrotation Zrotation
    JOINT RightToe
    {
     OFFSET 0.000000 -4.965400 11.033500
     CHANNELS 3 Yrotation Xrotation Zrotation
     End Site
     {
      OFFSET 0.000000 -1.423100 5.872300
     }
    }
   }
  }
 }
 JOINT LeftHip
 {
  OFFSET 7.771700 -0.012900 -0.001300
  CHANNELS 3 Yrotation Xrotation Zrotation
  JOINT LeftKnee
  {
   OFFSET 0.000000 -40.869800 0.001200
   CHANNELS 3 Yrotation Xrotation Zrotation
   JOINT LeftAnkle
   {
    OFFSET 0.000000 -39.717900 0.002100
    CHANNELS 3 Yrotation Xrotation Zrotation
    JOINT LeftToe
    {
     OFFSET 0.000000 -4.965400 11.033500
     CHANNELS 3 Yrotation Xrotation Zrotation
     End Site
     {
      OFFSET 0.000000 -1.423100 5.872300
     }
    }
   }
  }
 }
}
MOTION
Frames: 11
Frame Time: 0.008333
0.000000 85.388000 0.000000 0.000000 -5.767877 0.000000 0.000000 11.653817 0.000000 0.000000 -5.885947 0.000000 0.000000 -0.000000 0.000000 0.000000 -0.000000 0.000000 0.000000 12.528835 0.000000 0.000000 0.711642 0.000000 0.000000 -0.000000 0.000000 0.000000 0.000000 -90.000000 0.000000 -2.309062 0.000000 0.000000 2.309062 0.000000 0.000000 -0.000000 0.000000 0.000000 -0.000000 90.000000 0.000000 -2.309062 0.000000 0.000000 2.309062 0.000000 0.000000 8.520406 0.000000 0.000000 1.905762 0.000000 -0.000000 -4.658285 0.000000 0.000000 -0.000000 0.000000 0.000000 8.520406 0.000000 0.000000 1.905762 0.000000 -0.000000 -4.658285 0.000000 0.000000 -0.000000 0.000000
-112.333445 51.534623 -46.205506 177.548366 -18.748962 1.130421 -1.828593 7.722555 -0.397235 -0.090753 0.362383 0.012166 -0.166042 0.642053 0.022042 -1.790479 7.212995 0.132973 6.019829 16.469841 -5.844067 8.001190 -7.998415 -7.848907 -1.277069 15.489779 8.377419 24.565133 -12.671056 -45.304905 141.293174 -41.986445 175.530232 -2.733254 -0.840522 -11.679661 7.178061 16.352559 -10.049228 -14.194409 -8.640410 28.999605 -176.517868 -39.643642 -147.674838 23.449752 -15.831308 -0.976828 -13.450671 -64.428181 7.208176 -84.454602 80.144897 -93.069159 -4.811337 -12.239197 8.039898 0.322230 -0.889431 0.146309 13.416495 -61.664309 -12.512543 27.815717 84.179767 33.306992 -2.387171 -10.333732 0.300847 0.091794 0.467151 0.014068
-112.330021 51.529890 -46.203660 177.557161 -18.793134 1.143135 -1.833590 7.756528 -0.413745 -0.063309 0.326402 0.009775 -0.163501 0.640601 0.020510 -1.777286 7.219713 0.121566 5.991064 16.400085 -5.851249 7.970764 -8.077355 -7.849702 -1.298259 15.511103 8.396451 24.655182 -12.698700 -45.304933 141.386324 -42.098130 175.444590 -2.750540 -0.781041 -11.714092 7.141055 16.373049 -10.040217 -14.317719 -8.666105 29.028772 -176.647206 -39.756406 -147.559685 23.410879 -15.784898 -0.977413 -13.458409 -64.393167 7.206368 -84.473571 80.138540 -93.109400 -4.818826 -12.221162 8.038947 0.333930 -0.855736 0.146868 13.340961 -61.624415 -12.472420 27.871507 84.172973 33.349949 -2.380613 -10.340107 0.279115 0.094265 0.481607 0.019063
-112.327154 51.524725 -46.198919 177.571673 -18.838295 1.156028 -1.824409 7.764878 -0.430997 -0.062648 0.331947 0.010044 -0.154377 0.630536 0.018494 -1.765461 7.228406 0.111194 5.959119 16.356098 -5.851623 7.938480 -8.170776 -7.857437 -1.283224 15.506943 8.417466 24.706161 -12.706944 -45.290105 141.495021 -42.200988 175.352565 -2.763104 -0.721364 -11.754624 7.101719 16.398075 -10.021892 -14.411388 -8.683830 29.046905 -176.757629 -39.851717 -147.468853 23.381379 -15.744554 -1.015944 -13.463821 -64.356271 7.194208 -84.462172 80.131220 -93.115844 -4.820316 -12.203336 8.035880 0.338748 -0.862117 0.146746 13.262558 -61.583047 -12.435379 27.912799 84.160631 33.376906 -2.376386 -10.344312 0.260418 0.094786 0.498737 0.024709
-112.325450 51.520291 -46.192796 177.583094 -18.895050 1.171864 -1.812104 7.790917 -0.450840 -0.068319 0.337160 0.012750 -0.152788 0.630632 0.017522 -1.765451 7.239517 0.105333 5.942147 16.345281 -5.848737 7.906091 -8.300851 -7.880849 -1.247233 15.490517 8.432576 24.701651 -12.701717 -45.276383 141.681226 -42.265414 175.211111 -2.775025 -0.663011 -11.800452 7.081639 16.397886 -10.034611 -14.500915 -8.678411 29.080237 -176.799157 -39.946025 -147.426404 23.382619 -15.691781 -1.079504 -13.453638 -64.308871 7.168428 -84.431196 80.124941 -93.104360 -4.819557 -12.172197 8.037584 0.334087 -0.858046 0.143728 13.224417 -61.527116 -12.422747 27.906152 84.150756 33.363046 -2.377694 -10.344973 0.254739 0.098286 0.509379 0.025108
-112.322344 51.514147 -46.176700 177.549775 -18.909161 1.183222 -1.757997 7.781076 -0.446046 -0.082793 0.350845 0.010840 -0.146376 0.623626 0.017324 -1.758790 7.246311 0.099967 5.929039 16.272336 -5.862545 7.871904 -8.369094 -7.873712 -1.237037 15.485522 8.444939 24.725303 -12.699088 -45.271297 141.866450 -42.324170 175.076281 -2.791906 -0.607107 -11.845678 7.057086 16.399857 -10.049332 -14.580295 -8.666989 29.112308 -176.776301 -40.011576 -147.413276 23.399400 -15.603099 -1.167222 -13.444659 -64.300084 7.194892 -84.210882 80.113361 -92.904047 -4.775464 -12.087348 8.031779 0.312043 -0.875835 0.141980 13.213586 -61.517391 -12.391821 27.888454 84.139084 33.337916 -2.372956 -10.346784 0.246637 0.093904 0.523854 0.027721
-112.324482 51.510685 -46.162301 177.568528 -18.954026 1.199132 -1.771441 7.804912 -0.466875 -0.086466 0.361144 0.009775 -0.138488 0.621353 0.017917 -1.743874 7.247453 0.090307 5.903801 16.154322 -5.879257 7.848585 -8.396949 -7.850138 -1.251920 15.491100 8.458678 24.814649 -12.700820 -45.270682 141.975993 -42.398493 174.995051 -2.811117 -0.553996 -11.884071 7.014856 16.412758 -10.070203 -14.607131 -8.663747 29.148321 -176.783851 -40.057564 -147.404778 23.397952 -15.522260 -1.270993 -13.406678 -64.264016 7.133469 -84.103039 80.110054 -92.803367 -4.754325 -12.037694 8.026126 0.304666 -0.876597 0.142906 13.051321 -61.479108 -12.298134 27.955797 84.104347 33.352303 -2.359375 -10.342719 0.224243 0.090922 0.543206 0.027929
-112.328025 51.508441 -46.145020 177.599866 -18.999574 1.207113 -1.782036 7.823187 -0.477523 -0.085288 0.364208 0.008831 -0.155255 0.639730 0.013806 -1.723152 7.254504 0.080072 5.881389 16.064800 -5.882021 7.823285 -8.470891 -7.841321 -1.234981 15.473004 8.476226 24.864219 -12.689434 -45.252728 142.049690 -42.461828 174.939748 -2.757235 -0.551327 -11.899271 6.978846 16.418627 -10.071414 -14.633903 -8.666980 29.167000 -176.835290 -40.196103 -147.414459 23.399089 -15.556367 -1.381741 -13.403706 -64.227474 7.094340 -83.976244 80.104986 -92.691323 -4.733095 -11.968955 8.019931 0.298626 -0.860107 0.141451 12.977886 -61.433674 -12.283287 27.864868 84.068847 33.260038 -2.371278 -10.321126 0.198670 0.116388 0.554389 0.034080
-112.333707 51.507665 -46.125379 177.579381 -19.045937 1.232533 -1.756715 7.858410 -0.493412 -0.086650 0.368025 0.007921 -0.156027 0.642661 0.013056 -1.699105 7.268204 0.073914 5.853384 16.020331 -5.878780 7.799363 -8.603527 -7.846919 -1.187996 15.451083 8.501141 24.875316 -12.678015 -45.232539 142.084093 -42.518602 174.918818 -2.727011 -0.551349 -11.918881 6.939128 16.418147 -10.072488 -14.685846 -8.656265 29.178647 -176.799558 -40.308166 -147.447507 23.402012 -15.548495 -1.493927 -13.354901 -64.189331 7.056165 -83.729937 80.086094 -92.469468 -4.682239 -11.872932 8.018210 0.271856 -0.862777 0.135272 12.932358 -61.386302 -12.246214 27.875838 84.037401 33.244568 -2.374404 -10.305483 0.188795 0.120240 0.560038 0.038255
-112.341257 51.506195 -46.097353 177.611506 -19.055270 1.238831 -1.783151 7.857626 -0.507249 -0.086455 0.371013 0.007678 -0.152266 0.644441 0.012938 -1.685494 7.294431 0.067352 5.831731 15.964089 -5.876988 7.780732 -8.745303 -7.852175 -1.185520 15.429215 8.515086 24.966944 -12.639817 -45.179414 142.002517 -42.551034 174.984143 -2.833024 -0.464809 -11.893799 6.912551 16.399112 -10.069949 -14.781844 -8.588425 29.179478 -176.670236 -40.381758 -147.499325 23.395299 -15.515047 -1.597431 -13.356844 -64.187552 7.023483 -83.478389 80.060934 -92.230413 -4.629691 -11.774407 8.008498 0.257056 -0.869473 0.134473 12.831428 -61.376436 -12.223242 27.757965 83.977722 33.117817 -2.382879 -10.265824 0.148701 0.146092 0.567538 0.054257
-112.349303 51.506683 -46.068942 177.587113 -19.074067 1.256557 -1.758974 7.870643 -0.515681 -0.083942 0.370983 0.008774 -0.147873 0.651843 0.013885 -1.678313 7.323537 0.060719 5.816158 15.865841 -5.879275 7.769791 -8.861547 -7.853368 -1.168040 15.412890 8.531045 25.009455 -12.619316 -45.138915 141.929811 -42.562373 175.045168 -2.859474 -0.424464 -11.822725 6.882516 16.387010 -10.071233 -14.816925 -8.561683 29.180827 -176.589003 -40.455918 -147.551269 23.387502 -15.469335 -1.690187 -13.307727 -64.171412 6.995725 -83.144185 80.036331 -91.908531 -4.580997 -11.679190 8.006404 0.242544 -0.854598 0.126154 12.792654 -61.355243 -12.191839 27.691559 83.933178 33.033968 -2.387409 -10.239249 0.136683 0.154659 0.572655 0.058363
